<svg width="49" height="48" viewBox="0 0 49 48" fill="none" xmlns="http://www.w3.org/2000/svg">
<path d="M14.131 13.1373H15.5595V11.7087C15.5595 10.8516 16.131 10.2802 16.9881 10.2802C17.8453 10.2802 18.4167 10.8516 18.4167 11.7087V13.1373H29.8453V11.7087C29.8453 10.8516 30.4167 10.2802 31.2738 10.2802C32.131 10.2802 32.7024 10.8516 32.7024 11.7087V13.1373H34.131C36.5595 13.1373 38.4167 14.9944 38.4167 17.423V18.8516H9.84526V17.423C9.84526 14.9944 11.7024 13.1373 14.131 13.1373ZM38.4167 34.5659C38.4167 36.9944 36.5595 38.8516 34.131 38.8516H14.131C11.7024 38.8516 9.84526 36.9944 9.84526 34.5659V21.7087H38.4167V34.5659ZM16.9881 24.5659C16.131 24.5659 15.5595 25.1373 15.5595 25.9944C15.5595 26.8516 16.131 27.423 16.9881 27.423C17.8453 27.423 18.4167 26.8516 18.4167 25.9944C18.4167 25.1373 17.8453 24.5659 16.9881 24.5659ZM16.9881 30.2802C16.131 30.2802 15.5595 30.8516 15.5595 31.7087C15.5595 32.5659 16.131 33.1373 16.9881 33.1373C17.8453 33.1373 18.4167 32.5659 18.4167 31.7087C18.4167 30.8516 17.8453 30.2802 16.9881 30.2802ZM24.131 24.5659C23.2738 24.5659 22.7024 25.1373 22.7024 25.9944C22.7024 26.8516 23.2738 27.423 24.131 27.423C24.9881 27.423 25.5595 26.8516 25.5595 25.9944C25.5595 25.1373 24.9881 24.5659 24.131 24.5659ZM24.131 30.2802C23.2738 30.2802 22.7024 30.8516 22.7024 31.7087C22.7024 32.5659 23.2738 33.1373 24.131 33.1373C24.9881 33.1373 25.5595 32.5659 25.5595 31.7087C25.5595 30.8516 24.9881 30.2802 24.131 30.2802ZM31.2738 24.5659C30.4167 24.5659 29.8453 25.1373 29.8453 25.9944C29.8453 26.8516 30.4167 27.423 31.2738 27.423C32.131 27.423 32.7024 26.8516 32.7024 25.9944C32.7024 25.1373 32.131 24.5659 31.2738 24.5659ZM31.2738 30.2802C30.4167 30.2802 29.8453 30.8516 29.8453 31.7087C29.8453 32.5659 30.4167 33.1373 31.2738 33.1373C32.131 33.1373 32.7024 32.5659 32.7024 31.7087C32.7024 30.8516 32.131 30.2802 31.2738 30.2802Z" fill="#4F2684"/>
</svg>
