<svg width="49" height="48" viewBox="0 0 49 48" fill="none" xmlns="http://www.w3.org/2000/svg">
<path d="M17.8758 18.0854C17.8758 18.0854 17.9781 15.9259 20.2589 14.1944C21.6132 13.1663 23.2396 12.8685 24.6969 12.8502C26.0277 12.8352 27.2171 13.0426 27.9284 13.362C29.1441 13.9104 31.518 15.2453 31.518 18.0854C31.518 21.0741 29.4446 22.4287 27.0878 23.9214C24.731 25.4141 24.1285 26.878 24.1285 28.5559" stroke="#4F2684" stroke-width="5" stroke-miterlimit="10" stroke-linecap="round"/>
<path d="M26.5558 36.0821C26.5558 37.2814 25.4872 38.3223 24.0806 38.3223C22.6741 38.3223 21.6054 37.2814 21.6054 36.0821C21.6054 34.8829 22.6741 33.8419 24.0806 33.8419C25.4872 33.8419 26.5558 34.8829 26.5558 36.0821Z" fill="#4F2684" stroke="#4F2684"/>
</svg>
