<svg width="49" height="48" viewBox="0 0 49 48" fill="none" xmlns="http://www.w3.org/2000/svg">
<path d="M24.7021 9.58954C18.4094 9.58954 13.303 14.5861 13.303 20.7434C13.303 25.5331 20.2007 34.1022 23.2648 37.6725C24.0277 38.5614 25.3763 38.5611 26.1388 37.6719C29.2027 34.0995 36.1013 25.5249 36.1013 20.7434C36.1013 14.5972 30.9948 9.58954 24.7021 9.58954ZM24.7021 24.2035C22.3523 24.2035 20.443 22.3353 20.443 20.036C20.443 17.7366 22.3523 15.8684 24.7021 15.8684C27.052 15.8684 28.9613 17.7366 28.9613 20.036C28.9613 22.3353 27.052 24.2035 24.7021 24.2035Z" fill="#4F2684"/>
</svg>
