<svg width="49" height="48" viewBox="0 0 49 48" fill="none" xmlns="http://www.w3.org/2000/svg">
<path d="M30.9647 37.6611C30.1185 37.9485 29.2004 37.9443 28.3569 37.649L21.88 35.3821C20.9985 35.0736 20.0367 35.0833 19.1615 35.4095L13.6152 37.4768C13.1073 37.68 12.2531 37.6475 12.0206 37.4768C11.5446 37.1274 11.373 36.7342 11.373 36.1999V14.8666C11.373 14.5364 11.4685 14.2443 11.6595 13.9904C11.8504 13.7364 12.1105 13.5459 12.4397 13.4189L19.2099 11.1196C20.0561 10.8322 20.9741 10.8365 21.8176 11.1317L28.301 13.4009C29.1786 13.7081 30.1358 13.6999 31.0081 13.3778L36.6198 11.3054C37.1277 11.1022 37.8667 11.0939 38.1539 11.3054C38.5857 11.6234 38.8016 12.0485 38.8016 12.5808V33.9142C38.8016 34.2443 38.7066 34.5364 38.5166 34.7904C38.3266 35.0443 38.0661 35.2348 37.7349 35.3618L30.9647 37.6611ZM28.1349 34.3713V16.5428L22.0397 14.4094V32.238L28.1349 34.3713Z" fill="#4F2684"/>
</svg>
