<svg width="27" height="27" viewBox="0 0 27 27" fill="none" xmlns="http://www.w3.org/2000/svg">
<path d="M21.4451 3.32471H5.19513C4.76415 3.32471 4.35083 3.49591 4.04608 3.80066C3.74133 4.10541 3.57013 4.51873 3.57013 4.94971V21.1997C3.57013 21.6307 3.74133 22.044 4.04608 22.3488C4.35083 22.6535 4.76415 22.8247 5.19513 22.8247H21.4451C21.8761 22.8247 22.2894 22.6535 22.5942 22.3488C22.8989 22.044 23.0701 21.6307 23.0701 21.1997V4.94971C23.0701 4.51873 22.8989 4.10541 22.5942 3.80066C22.2894 3.49591 21.8761 3.32471 21.4451 3.32471ZM14.6326 13.8872C14.3565 13.8872 14.1326 14.1111 14.1326 14.3872C14.1326 15.9497 14.1326 17.5122 14.1326 19.0747C14.1326 19.3508 13.9088 19.5747 13.6326 19.5747C13.4243 19.5747 13.216 19.5747 13.0076 19.5747C12.7315 19.5747 12.5076 19.3508 12.5076 19.0747C12.5076 17.5122 12.5076 15.9497 12.5076 14.3872C12.5076 14.1111 12.2838 13.8872 12.0076 13.8872C10.4451 13.8872 8.88263 13.8872 7.32013 13.8872C7.04399 13.8872 6.82013 13.6634 6.82013 13.3872C6.82013 13.1794 6.82013 12.97 6.82013 12.7622C6.82013 12.4861 7.04399 12.2622 7.32013 12.2622C8.88263 12.2622 10.4451 12.2622 12.0076 12.2622C12.2838 12.2622 12.5076 12.0383 12.5076 11.7622C12.5076 10.2372 12.5076 8.71221 12.5076 7.18721C12.5076 6.91107 12.7315 6.68721 13.0076 6.68721C13.216 6.68721 13.4243 6.68721 13.6326 6.68721C13.9088 6.68721 14.1326 6.91107 14.1326 7.18721C14.1326 8.71221 14.1326 10.2372 14.1326 11.7622C14.1326 12.0383 14.3565 12.2622 14.6326 12.2622C16.1951 12.2622 17.7576 12.2622 19.3201 12.2622C19.5963 12.2622 19.8201 12.4861 19.8201 12.7622C19.8201 12.9705 19.8201 13.1789 19.8201 13.3872C19.8201 13.6633 19.5963 13.8872 19.3201 13.8872C17.7576 13.8872 16.1951 13.8872 14.6326 13.8872Z" fill="#C91F39"/>
</svg>
