<svg width="23" height="23" viewBox="0 0 23 23" fill="none" xmlns="http://www.w3.org/2000/svg">
<path d="M17.9471 3.1358H4.19711C3.83244 3.1358 3.4827 3.28067 3.22484 3.53853C2.96698 3.79639 2.82211 4.14613 2.82211 4.5108V18.2608C2.82211 18.6255 2.96698 18.9752 3.22484 19.2331C3.4827 19.4909 3.83244 19.6358 4.19711 19.6358H17.9471C18.3118 19.6358 18.6615 19.4909 18.9194 19.2331C19.1772 18.9752 19.3221 18.6255 19.3221 18.2608V4.5108C19.3221 4.14613 19.1772 3.79639 18.9194 3.53853C18.6615 3.28067 18.3118 3.1358 17.9471 3.1358ZM12.2596 12.0733C11.9835 12.0733 11.7596 12.2972 11.7596 12.5733C11.7596 13.8441 11.7596 15.115 11.7596 16.3858C11.7596 16.6619 11.5358 16.8858 11.2596 16.8858C11.1346 16.8858 11.0096 16.8858 10.8846 16.8858C10.6085 16.8858 10.3846 16.6619 10.3846 16.3858C10.3846 15.115 10.3846 13.8441 10.3846 12.5733C10.3846 12.2972 10.1608 12.0733 9.88461 12.0733C8.61378 12.0733 7.34295 12.0733 6.07211 12.0733C5.79597 12.0733 5.57211 11.8494 5.57211 11.5733C5.57211 11.4485 5.57211 11.3231 5.57211 11.1983C5.57211 10.9222 5.79597 10.6983 6.07211 10.6983C7.34295 10.6983 8.61378 10.6983 9.88461 10.6983C10.1608 10.6983 10.3846 10.4744 10.3846 10.1983C10.3846 8.9592 10.3846 7.7201 10.3846 6.481C10.3846 6.20486 10.6085 5.981 10.8846 5.981C11.0096 5.981 11.1346 5.981 11.2596 5.981C11.5358 5.981 11.7596 6.20486 11.7596 6.481C11.7596 7.7201 11.7596 8.9592 11.7596 10.1983C11.7596 10.4744 11.9835 10.6983 12.2596 10.6983C13.5304 10.6983 14.8013 10.6983 16.0721 10.6983C16.3483 10.6983 16.5721 10.9222 16.5721 11.1983C16.5721 11.3233 16.5721 11.4483 16.5721 11.5733C16.5721 11.8494 16.3483 12.0733 16.0721 12.0733C14.8013 12.0733 13.5304 12.0733 12.2596 12.0733Z" fill="#FFFCFA"/>
</svg>
