<svg width="20" height="18" viewBox="0 0 20 18" fill="none" xmlns="http://www.w3.org/2000/svg">
<path d="M14.6726 15.1436C14.8679 15.3388 15.1845 15.3388 15.3797 15.1436C15.5486 14.9747 15.7175 14.8058 15.8864 14.6369C16.0817 14.4416 16.0817 14.125 15.8864 13.9298C14.4085 12.4519 12.9303 10.9743 11.4521 9.49655C11.2569 9.30132 11.2568 8.98475 11.452 8.78946C12.9296 7.31124 14.4071 5.83289 15.885 4.35495C16.0803 4.15967 16.0803 3.84308 15.885 3.64781C15.7161 3.47891 15.5472 3.31001 15.3783 3.14111C15.183 2.94586 14.8664 2.94586 14.6712 3.14113C13.1934 4.61908 11.7159 6.09739 10.2383 7.57558C10.0431 7.77089 9.72647 7.77094 9.53117 7.57569C8.05307 6.098 6.57492 4.62036 5.09696 3.14253C4.90169 2.94728 4.58512 2.94729 4.38986 3.14255C4.22096 3.31145 4.05207 3.48035 3.88317 3.64925C3.68791 3.84451 3.68791 4.16108 3.88317 4.35634C5.36106 5.83422 6.83926 7.31181 8.31736 8.78949C8.51267 8.98475 8.51268 9.30138 8.31739 9.49666C6.83907 10.9748 5.36072 12.453 3.88246 13.9312C3.68719 14.1265 3.68719 14.443 3.88245 14.6383C4.05135 14.8072 4.22025 14.9761 4.38915 15.145C4.58441 15.3403 4.90098 15.3403 5.09625 15.145C6.57455 13.6668 8.05293 12.1886 9.53128 10.7104C9.72653 10.5151 10.0431 10.5151 10.2383 10.7103C11.7164 12.1881 13.1946 13.6657 14.6726 15.1436Z" fill="#FFFCFA"/>
</svg>
