<svg width="27" height="27" viewBox="0 0 27 27" fill="none" xmlns="http://www.w3.org/2000/svg">
<path d="M21.9249 2.70778H5.79852C5.18752 2.70778 4.60155 2.9505 4.16951 3.38254C3.73747 3.81458 3.49475 4.40055 3.49475 5.01154V21.1379C3.49475 21.7489 3.73747 22.3349 4.16951 22.7669C4.60155 23.1989 5.18752 23.4417 5.79852 23.4417H21.9249C22.5359 23.4417 23.1218 23.1989 23.5539 22.7669C23.9859 22.3349 24.2286 21.7489 24.2286 21.1379V5.01154C24.2286 4.40055 23.9859 3.81458 23.5539 3.38254C23.1218 2.9505 22.5359 2.70778 21.9249 2.70778ZM18.362 18.4806C18.1668 18.6758 17.8502 18.6758 17.6549 18.4806L14.2152 15.0409C14.02 14.8456 13.7034 14.8456 13.5081 15.0409L10.0685 18.4806C9.87321 18.6758 9.55663 18.6758 9.36136 18.4806L8.45583 17.5751C8.26057 17.3798 8.26057 17.0632 8.45583 16.8679L11.8955 13.4283C12.0908 13.233 12.0908 12.9164 11.8955 12.7212L8.45584 9.2815C8.26057 9.08624 8.26057 8.76965 8.45583 8.57439L9.36136 7.66886C9.55663 7.4736 9.87321 7.4736 10.0685 7.66886L13.5081 11.1085C13.7034 11.3038 14.02 11.3038 14.2152 11.1085L17.6549 7.66886C17.8502 7.4736 18.1668 7.4736 18.362 7.66886L19.2676 8.57439C19.4628 8.76965 19.4628 9.08624 19.2676 9.2815L15.8279 12.7212C15.6326 12.9164 15.6326 13.233 15.8279 13.4283L19.2676 16.8679C19.4628 17.0632 19.4628 17.3798 19.2676 17.5751L18.362 18.4806Z" fill="#FFFCFA"/>
</svg>
