<svg width="35" height="34" viewBox="0 0 35 34" fill="none" xmlns="http://www.w3.org/2000/svg">
<path fill-rule="evenodd" clip-rule="evenodd" d="M19.7362 3.57054C19.212 3.36154 18.5462 3.36154 17.2159 3.36154C15.8857 3.36154 15.2213 3.36154 14.6957 3.57054C13.9979 3.84858 13.4425 4.38422 13.1515 5.05967C13.0183 5.36629 12.9673 5.72517 12.9461 6.24629C12.9366 6.62387 12.8281 6.99287 12.6308 7.31841C12.4335 7.64394 12.1539 7.91524 11.8184 8.10667C11.4766 8.29106 11.0924 8.38874 10.7014 8.39066C10.3104 8.39259 9.92519 8.29869 9.5815 8.11767C9.10267 7.87292 8.75559 7.73817 8.41275 7.69417C7.66271 7.59858 6.90411 7.79427 6.30192 8.23867C5.85142 8.57142 5.5185 9.12692 4.85409 10.2365C4.18825 11.3462 3.85675 11.9003 3.78167 12.4434C3.6825 13.1667 3.8865 13.8982 4.34834 14.477C4.558 14.741 4.85409 14.9624 5.31167 15.2402C5.98742 15.6485 6.42092 16.3443 6.42092 17.1115C6.42092 17.8788 5.98742 18.5745 5.31309 18.9815C4.85409 19.2607 4.558 19.482 4.34692 19.746C4.11896 20.032 3.95163 20.3589 3.85461 20.7079C3.75759 21.057 3.7328 21.4213 3.78167 21.7797C3.85675 22.3214 4.18825 22.8769 4.85409 23.9865C5.51992 25.0962 5.85142 25.6503 6.30192 25.9844C6.90259 26.4285 7.66192 26.6238 8.41275 26.5289C8.75559 26.4849 9.10267 26.3502 9.5815 26.1054C9.92537 25.9242 10.3108 25.8301 10.7021 25.832C11.0934 25.834 11.4779 25.9318 11.8198 26.1164C12.5083 26.5014 12.9163 27.2095 12.9461 27.9768C12.9673 28.4993 13.0183 28.8568 13.1515 29.1634C13.4405 29.8372 13.9958 30.3734 14.6957 30.6525C15.2198 30.8615 15.8857 30.8615 17.2159 30.8615C18.5462 30.8615 19.212 30.8615 19.7362 30.6525C20.4339 30.3745 20.9894 29.8389 21.2803 29.1634C21.4135 28.8568 21.4645 28.4993 21.4858 27.9768C21.5141 27.2095 21.9235 26.5 22.6134 26.1164C22.9552 25.932 23.3394 25.8343 23.7304 25.8324C24.1215 25.8305 24.5067 25.9244 24.8503 26.1054C25.3292 26.3502 25.6763 26.4849 26.0191 26.5289C26.7699 26.6252 27.5293 26.4285 28.1299 25.9844C28.5804 25.6517 28.9133 25.0962 29.5778 23.9865C30.2436 22.8769 30.5751 22.3228 30.6502 21.7797C30.6988 21.4212 30.6738 21.0569 30.5766 20.7078C30.4793 20.3587 30.3117 20.0319 30.0835 19.746C29.8738 19.482 29.5778 19.2607 29.1202 18.9829C28.4444 18.5745 28.0109 17.8788 28.0109 17.1115C28.0109 16.3443 28.4444 15.6485 29.1188 15.2415C29.5778 14.9624 29.8738 14.741 30.0849 14.477C30.3129 14.1911 30.4802 13.8642 30.5772 13.5151C30.6743 13.1661 30.699 12.8018 30.6502 12.4434C30.5751 11.9017 30.2436 11.3462 29.5778 10.2365C28.9119 9.12692 28.5804 8.57279 28.1299 8.23867C27.5277 7.79427 26.7691 7.59858 26.0191 7.69417C25.6763 7.73817 25.3292 7.87292 24.8503 8.11767C24.5065 8.29893 24.121 8.39296 23.7297 8.39104C23.3384 8.38912 22.954 8.2913 22.612 8.10667C22.2768 7.91507 21.9975 7.6437 21.8004 7.31818C21.6034 6.99265 21.4951 6.62374 21.4858 6.24629C21.4645 5.72379 21.4135 5.36629 21.2803 5.05967C21.1363 4.72518 20.9258 4.42151 20.6609 4.166C20.3959 3.91049 20.0817 3.70815 19.7362 3.57054ZM17.2159 21.2365C19.5818 21.2365 21.4985 19.3899 21.4985 17.1115C21.4985 14.8332 19.5803 12.9865 17.2159 12.9865C14.8501 12.9865 12.9333 14.8332 12.9333 17.1115C12.9333 19.3899 14.8515 21.2365 17.2159 21.2365Z" fill="#4F2684"/>
</svg>
