<svg width="43" height="42" viewBox="0 0 43 42" fill="none" xmlns="http://www.w3.org/2000/svg">
<path d="M12.4517 11.4951H13.7017V10.2451C13.7017 9.49512 14.2017 8.99512 14.9517 8.99512C15.7017 8.99512 16.2017 9.49512 16.2017 10.2451V11.4951H26.2017V10.2451C26.2017 9.49512 26.7017 8.99512 27.4517 8.99512C28.2017 8.99512 28.7017 9.49512 28.7017 10.2451V11.4951H29.9517C32.0767 11.4951 33.7017 13.1201 33.7017 15.2451V16.4951H8.70166V15.2451C8.70166 13.1201 10.3267 11.4951 12.4517 11.4951ZM33.7017 30.2451C33.7017 32.3701 32.0767 33.9951 29.9517 33.9951H12.4517C10.3267 33.9951 8.70166 32.3701 8.70166 30.2451V18.9951H33.7017V30.2451ZM14.9517 21.4951C14.2017 21.4951 13.7017 21.9951 13.7017 22.7451C13.7017 23.4951 14.2017 23.9951 14.9517 23.9951C15.7017 23.9951 16.2017 23.4951 16.2017 22.7451C16.2017 21.9951 15.7017 21.4951 14.9517 21.4951ZM14.9517 26.4951C14.2017 26.4951 13.7017 26.9951 13.7017 27.7451C13.7017 28.4951 14.2017 28.9951 14.9517 28.9951C15.7017 28.9951 16.2017 28.4951 16.2017 27.7451C16.2017 26.9951 15.7017 26.4951 14.9517 26.4951ZM21.2017 21.4951C20.4517 21.4951 19.9517 21.9951 19.9517 22.7451C19.9517 23.4951 20.4517 23.9951 21.2017 23.9951C21.9517 23.9951 22.4517 23.4951 22.4517 22.7451C22.4517 21.9951 21.9517 21.4951 21.2017 21.4951ZM21.2017 26.4951C20.4517 26.4951 19.9517 26.9951 19.9517 27.7451C19.9517 28.4951 20.4517 28.9951 21.2017 28.9951C21.9517 28.9951 22.4517 28.4951 22.4517 27.7451C22.4517 26.9951 21.9517 26.4951 21.2017 26.4951ZM27.4517 21.4951C26.7017 21.4951 26.2017 21.9951 26.2017 22.7451C26.2017 23.4951 26.7017 23.9951 27.4517 23.9951C28.2017 23.9951 28.7017 23.4951 28.7017 22.7451C28.7017 21.9951 28.2017 21.4951 27.4517 21.4951ZM27.4517 26.4951C26.7017 26.4951 26.2017 26.9951 26.2017 27.7451C26.2017 28.4951 26.7017 28.9951 27.4517 28.9951C28.2017 28.9951 28.7017 28.4951 28.7017 27.7451C28.7017 26.9951 28.2017 26.4951 27.4517 26.4951Z" fill="#ACACAC"/>
</svg>
