<svg width="43" height="42" viewBox="0 0 43 42" fill="none" xmlns="http://www.w3.org/2000/svg">
<path d="M15.7285 15.8248C15.7285 15.8248 15.818 13.9352 17.8137 12.4201C18.9987 11.5205 20.4218 11.26 21.6969 11.244C22.8614 11.2308 23.9021 11.4123 24.5245 11.6917C25.5882 12.1716 27.6653 13.3397 27.6653 15.8248C27.6653 18.4399 25.8512 19.6251 23.789 20.9312C21.7267 22.2374 21.1995 23.5183 21.1995 24.9864" stroke="#ACACAC" stroke-width="5" stroke-miterlimit="10" stroke-linecap="round"/>
<path d="M23.2609 31.5719C23.2609 32.582 22.3588 33.4695 21.1576 33.4695C19.9565 33.4695 19.0543 32.582 19.0543 31.5719C19.0543 30.5617 19.9565 29.6742 21.1576 29.6742C22.3588 29.6742 23.2609 30.5617 23.2609 31.5719Z" fill="#ACACAC" stroke="#ACACAC"/>
</svg>
