<svg width="43" height="42" viewBox="0 0 43 42" fill="none" xmlns="http://www.w3.org/2000/svg">
<path d="M21.7015 8.39084C16.1954 8.39084 11.7272 12.7629 11.7272 18.1505C11.7272 22.2528 17.5099 29.5235 20.2692 32.7592C21.0292 33.6505 22.3734 33.6503 23.1332 32.7587C25.8922 29.5211 31.6757 22.2457 31.6757 18.1505C31.6757 12.7725 27.2076 8.39084 21.7015 8.39084ZM21.7015 21.178C19.6453 21.178 17.9747 19.5434 17.9747 17.5315C17.9747 15.5196 19.6453 13.8849 21.7015 13.8849C23.7576 13.8849 25.4282 15.5196 25.4282 17.5315C25.4282 19.5434 23.7576 21.178 21.7015 21.178Z" fill="#ACACAC"/>
</svg>
