<svg width="43" height="42" viewBox="0 0 43 42" fill="none" xmlns="http://www.w3.org/2000/svg">
<path d="M27.3445 32.898C26.4983 33.1854 25.5802 33.1812 24.7367 32.8859L19.4027 31.019C18.5211 30.7105 17.5594 30.7201 16.6842 31.0464L12.0005 32.7922C11.556 32.97 10.8086 32.9416 10.6052 32.7922C10.1887 32.4865 10.0385 32.1424 10.0385 31.6749V13.0082C10.0385 12.7193 10.1221 12.4638 10.2892 12.2416C10.4563 12.0193 10.6838 11.8527 10.9718 11.7416L16.7326 9.78508C17.5788 9.4977 18.4968 9.50196 19.3403 9.79718L24.6808 11.6664C25.5584 11.9735 26.5157 11.9653 27.3879 11.6432L32.1294 9.89222C32.5739 9.71444 33.2205 9.70714 33.4718 9.89222C33.8496 10.1704 34.0385 10.5424 34.0385 11.0082V29.6749C34.0385 29.9638 33.9554 30.2193 33.7892 30.4416C33.623 30.6638 33.395 30.8304 33.1052 30.9416L27.3445 32.898ZM24.7052 30.0749V14.4749L19.3718 12.6082V28.2082L24.7052 30.0749Z" fill="#ACACAC"/>
</svg>
